<?xml version="1.0" encoding="utf-8"?>
<!-- Generator: Adobe Illustrator 19.2.1, SVG Export Plug-In . SVG Version: 6.00 Build 0)  -->
<svg version="1.1" id="Layer_1" xmlns="http://www.w3.org/2000/svg" xmlns:xlink="http://www.w3.org/1999/xlink" x="0px" y="0px"
	 viewBox="0 0 300 226.7" style="enable-background:new 0 0 300 226.7;" xml:space="preserve">
<style type="text/css">
	.st0{fill:#FFFFFF;stroke:#000000;stroke-width:1.5;stroke-miterlimit:10;}
	.st1{fill:#D1D3D4;}
	.st2{fill:none;stroke:#000000;stroke-miterlimit:10;}
</style>
<g>
	<path class="st0" d="M446.7,161.6h-0.2c-5.3-0.8-129.7-20.3-134.1-19.5l-23.8,1.9l-4.2,3.8L42.8,118.1l-0.2-4.3l0.2-0.1l-18.8-11.9
		l0,0l-90.8-6.9H-67L-193.5,144l-0.7,0.3l0.6,0.1v12.2h0.2v0.2l129.4,15.1v5.2l285.6,47.4h0.2v-0.2l8.8-9.2l191.9,26.2h0.2l-0.2-9.7
		L446.7,161.6z"/>
</g>
<path class="st1" d="M230.3,202.6l-254.6-38.2L37.2,129l231.5,30.9L230.3,202.6z"/>
<polyline class="st2" points="42.6,118.3 284.4,148 221.5,218.9 -57,172.5 "/>
<polyline class="st2" points="-25,164.6 37.2,128.8 37.2,124.2 "/>
<polygon class="st2" points="37.2,124.2 272.1,156.4 230.3,202.8 -32.9,163.3 "/>
<polyline class="st2" points="312.3,142.2 288.6,144.2 284.4,148 "/>
<path class="st2" d="M229,210.8"/>
<polygon class="st2" points="23.9,102 42.4,113.7 -57,167.5 -81.9,154.9 -193.4,144.2 -67,95.1 "/>
<polyline class="st2" points="-193.4,156.6 -57,172.5 42.6,118.3 42.4,113.7 "/>
<line class="st2" x1="-57" y1="167.5" x2="-57" y2="172.5"/>
<line class="st2" x1="133.8" y1="154.1" x2="115" y2="169.8"/>
<line class="st2" x1="141.5" y1="167.1" x2="105.4" y2="160.6"/>
<line class="st2" x1="87.4" y1="135.6" x2="33.9" y2="173.3"/>
<path class="st2" d="M212.3,152.2c0,0-44.8,40.6-43.3,40.6"/>
<line class="st2" x1="259" y1="170.6" x2="23.9" y2="136.7"/>
<line class="st2" x1="-12.2" y1="157.1" x2="236.3" y2="195.5"/>
<path class="st2" d="M312.3,142.2c4.2-0.7,134.1,19.5,134.1,19.5l-24.2,69.7l-165.5-23.8L312.3,142.2z"/>
<line class="st2" x1="256.8" y1="207.7" x2="229" y2="210.8"/>
<line class="st2" x1="23.9" y1="102" x2="-81.9" y2="154.9"/>
<line class="st2" x1="-193.4" y1="144.2" x2="-193.4" y2="156.6"/>
<polyline class="st2" points="-63.9,171.6 -63.9,176.9 221.5,224.2 221.5,218.9 "/>
<polyline class="st2" points="225.7,214.2 422.5,241.1 422.3,231.5 "/>
<line class="st2" x1="221.5" y1="224.2" x2="230.8" y2="214.6"/>
<g>
	<path class="st0" d="M199.2,97.5c0.4,0.2,1.4,0.3,2-0.1c0.4-0.2,0.6-0.6,0.7-1.1c0.2-1.3,0.1-2.4-0.5-3.3c-0.1-0.2-0.2-0.2-0.2-0.4
		c-0.3-0.6-0.4-0.8-1.2-1.4c-0.9-0.6-1.9-1-2.7-1.3c-0.8-0.3-2.5-1-2.7-1c-0.2-0.3-2.3-2.8-2.4-2.8s-1.3-1.7-1.9-2.7
		c-0.1-0.1-5.8-8.6-7.1-10.7c-1-1.5-2.3-2.3-3.3-2.8c-0.4-0.2-0.8-0.5-1.1-0.7c-1-0.7-1.5-1.8-1.9-2.8c-0.1-0.2-0.2-0.3-0.2-0.5
		c-0.2-0.4-0.5-0.9-0.8-1.5c-0.5-0.8-1.1-1.8-1.3-2.4c-0.3-1.1-1.9-3.6-1.9-3.6c-0.2-0.3-5.8-7.7-6.8-8.5c-0.2-0.2-0.5-0.5-0.9-0.8
		c-1.6-1.7-4.7-4.8-8.9-5.5c-0.9-0.6-5.4-6.6-5.8-7.1l-0.1-0.2c-0.2-0.4-0.6-0.8-1.1-1.1c-0.4-0.2-0.5-2-0.5-2.8
		c0.3,0.3,0.7,0.8,0.8,0.9c0.1,0,0.2,0.2,0.5,0.5c0.6,0.8,2.1,2.4,4.2,4.2c0.4,0.3,0.8,0.6,1.1,0.8c0.6,0.4,1.2,0.6,1.6,0.5
		c0.6-0.2,0.9-0.7,1.1-1.1c0.1-0.1,0.1-0.2,0.2-0.2c0.3-0.6,0.1-1.9,0-2.6c-0.1-0.2-0.1-0.5-0.1-0.6c0-0.3-0.3-1.5-1.6-3.1
		c-0.8-1.1-1.4-1.5-2.2-2.2c-0.3-0.3-0.7-0.6-1.2-1.1c-1.1-1-1.3-1.1-1.6-1.4c-0.2-0.1-0.4-0.2-0.7-0.5c-0.5-0.4-0.9-0.9-1.4-1.5
		c-0.6-0.7-1.3-1.6-2.3-2.7c-1.9-1.9-4.7-1.6-4.7-1.6l-2.7,0.6c-1.3-0.9-2.9,0.6-3.1,0.9l-1.2-0.1l-0.1-0.3l-0.2-2.3
		c0.2-0.1,0.8-0.3,0.8-1c0-0.7-0.1-2-0.1-2c0-0.1,0.1-1.1-0.2-1.4c-0.1-0.1-0.2-0.1-0.2-0.1c-0.2-0.2-1-1.2-1.2-1.8
		c0.1,0,0.2-0.1,0.2-0.2c0.2-0.6-0.6-2.4-1.2-2.8c-0.6-0.4-1.6-0.1-1.8,0.1c-0.8-0.6-1.1-0.6-1.8-0.8c-0.1,0-0.2-0.1-0.3-0.1
		c-0.6-0.2-1-0.1-1.5,0c-0.2,0-0.5,0.1-0.8,0.1c-1,0.1-1.6,1.4-1.7,1.6c-0.2,0-1,0.1-1.5,1.2c-0.5,1.1-1.5,4.2-1.2,4.7
		c0.2,0.4,0.7,1.8,0.8,2c0,0.2,0.2,0.6,0.3,0.9l0,0c-0.1,0.1,0,0.2,0.2,0.4c0.6,0.5,1,1.4,1,1.4l0.8,1.3l2,1.7l0.9,0.7l0,0
		c0,1.1-1.6,2.1-2.4,2.4c-0.9,0.3-1.7,1.9-1.8,2.1c-2.3,2.4-1.6,4.4-0.6,7.3c0.2,0.5,0.3,1,0.5,1.5c1.2,4,7.2,9.6,9.6,11.3
		c0.2,0.2,0.3,0.2,0.5,0.3c0.6,0.4,1.1,0.5,1.5,0.4c0.3-0.1,0.6-0.2,0.9-0.6c1.1,0.9,5.3,6.7,5.7,7.3c0.4,0.7,2.4,4.1,3,5.4
		c0.7,1.5,2.7,3.6,4.4,4.7c1.7,1.1,14.3,8.4,14.4,8.5l3.2,2.3c0.2,0.3,3.2,5.9,9.7,10c0.5,0.3,1.1,0.6,1.6,1l8.2,4.8
		c0.2,0.2,0.9,1.3,1.1,1.5l0.9,0.6c0.1,0.2,0.3,1.1,0.6,1.4c0.3,0.2,1,0.8,1.5,1.3c0.2,0.2,0.2,0.2,0.4,0.4c0.1,0.1,0.2,0.2,0.4,0.3
		c1.1,0.7,4.1,2.2,4.5,2.3c0.6,0.1,3.1-0.3,3.5-1.5c0.3-1-0.6-1.7-1.2-2.4c-0.2-0.1-0.2-0.2-0.3-0.3c-0.4-0.4-1-1.1-1.4-1.6
		c0.1,0.1,0.1,0.1,0.2,0.1C197.3,96.4,198.5,97.2,199.2,97.5z M190.8,91.4c-0.5-0.2-1.6-0.6-2.8-1.3c-1.9-1.1-4-3.2-6.6-6.3
		c-2.4-3-4.1-4.1-5.2-4.7c-0.2-0.2-0.4-0.2-0.6-0.4c-1-0.6-3.6-4.7-3.6-4.8l-3.7-4.5l-2.9-3.3c0.6,0.4,1.3,1,1.6,1.2
		c0.2,0.2,0.6,0.6,1.2,1.1c1.1,1.1,2.7,2.4,3.5,3c1.2,0.8,4,3.9,5.4,6.1c1.5,2.2,6.6,6.3,8.3,7.4c1.7,1.1,3.1,2.8,3.2,2.8l1.8,2.8
		C190.4,90.6,190.5,90.9,190.8,91.4z"/>
</g>
<path class="st2" d="M148.4,32.3c0,0,0,2.6,0.6,2.9c0.6,0.3,0.9,0.9,1.1,1.3c0.2,0.4,4.8,6.6,5.8,7.1c0,0-0.5,5.1,0.5,8.4
	c0,0,0.9,4.1,0.6,4.7s-5.5-3-11.9-2.7c0,0-3.2,1.6-3,3.5c0,0-4.9-6.7-5.8-7.4"/>
<path class="st2" d="M141.9,57.4c0,0,2.4,4.1,3.1,5.6c0.7,1.4,2.7,3.6,4.4,4.7s14.4,8.5,14.4,8.5l3.2,2.3c0,0,3.4,6.7,11.4,10.9
	l8.2,4.8c0,0,0.9,1.3,1.1,1.5c0.2,0.2,1,0.6,1,0.6s0.2,1.1,0.6,1.4c0.4,0.2,1.3,1.1,1.9,1.6c0.6,0.5,4.4,2.4,4.9,2.5s3-0.3,3.4-1.4
	c0.4-1.1-0.9-1.9-1.5-2.6c-0.6-0.6-1.8-2.3-1.8-2.3"/>
<path class="st2" d="M191.1,91.5c0,0-1.5-0.5-3.1-1.4c-1.5-0.9-3.6-2.7-6.6-6.3c-2.9-3.6-4.8-4.4-5.8-5.1c-1-0.7-3.6-4.8-3.6-4.8
	l-3.7-4.5l-4.9-5.4c0,0-4-5.5-6.7-7.4"/>
<path class="st2" d="M165,65.7c0,0,1.6,1.2,2.2,1.6s3.4,3.2,4.7,4.1c1.2,0.9,4,4,5.4,6.1c1.4,2.1,6.5,6.3,8.3,7.4
	c1.8,1.1,3.2,2.8,3.2,2.8l1.8,2.8c0,0,0.8,1.7,1.9,2.3c1.1,0.6,2.3,1.4,2.5,1.6c0.2,0.2,1.3,1.2,1.9,1.5c0.6,0.3,1.8,1.1,2.5,1.5
	c0.7,0.3,2.4,0.3,2.7-1.1c0.2-1.4,0-2.4-0.5-3.2c-0.5-0.8-0.5-1.1-1.4-1.7c-0.9-0.6-1.8-1-2.7-1.3c-0.9-0.3-2.8-1-2.8-1
	s-2.3-2.8-2.4-2.8s-1.9-2.8-1.9-2.8s-5.7-8.6-7.1-10.7c-1.4-2.1-3.3-2.7-4.4-3.6c-1.1-0.8-1.6-2.2-2.2-3.2c-0.5-1.1-1.9-2.8-2.2-3.9
	s-1.9-3.6-1.9-3.6s-5.8-7.7-6.8-8.5c-1.1-0.8-4.5-5.4-9.7-6.3"/>
<path class="st2" d="M192.4,92.9c0,0,2.9,2.2,2.8,3.4c-0.1,1.3-1.9,1.2-3.5,0.2c-1.5-1.1-2.8-0.6-3.2-0.3"/>
<path class="st2" d="M194.7,89.1c0,0,2.5,1.4,2.8,2.4c0.3,1.1,0.2,2.6-2,1.5c-2.3-1.1-1.5-1-2.3-1.1c-0.7-0.1-2.1-0.4-2.1-0.4"/>
<path class="st2" d="M189.9,95.8c0.2-0.2,1.8-2.8,3-2.4"/>
<path class="st2" d="M193.7,94.2c0,0-2.5,0.7-2.8,1.9"/>
<path class="st2" d="M195,89.4c0,0-2.2,1.6-1.8,2.5"/>
<path class="st2" d="M193.9,92c0,0,0.2-2.4,1.8-2.1"/>
<path class="st2" d="M168.1,72.4c0,0-1.9,0.2-2.1,1.4"/>
<path class="st2" d="M177.1,69.3c0,0,0.1,1.2-1.1,1.2"/>
<path class="st2" d="M170.3,76.1c-0.2,0.2-1.4,1.3-2.1,1.1"/>
<path class="st2" d="M146.2,28.7c0,0-2.1-2.6-2.3-2.9s-1.2-1-2.3-2c-1.1-1.1-2.4-2.4-2.4-2.4l2.8-0.6c0,0,2.7-0.4,4.6,1.6
	c1.9,1.9,2.7,3.4,3.7,4.2c1,0.8,0.7,0.4,2.4,1.9s2.2,1.8,3.4,3.3c1.2,1.5,1.6,2.7,1.6,3.1c0,0.4,0.6,2.3,0.2,3.2
	c-0.5,0.9-1,2.6-3.9,0.1c-2.9-2.5-4.5-4.6-4.7-4.7c-0.2-0.2-1.3-1.4-1.3-1.4l-1.1-1.5C147,30.4,146.2,28.8,146.2,28.7
	c0.1-0.2,0.3-1.1,0.3-1.1"/>
<path class="st2" d="M155.6,33.9l-1-0.6c0,0-2.3-1.2-2.8-1.5c-0.6-0.3-1.6-1.6-1.6-1.6l-0.6-2.4c0,0,0.3-0.3-0.2-1.1
	c-0.6-0.7-0.5-1.3-0.7-1.6c-0.2-0.3-0.5-1.1-0.8-1.3c-0.3-0.2-1-0.7-1.1-0.6c-0.2,0.2-1.1,1.5-1.1,1.5s-0.1,1.1,0.2,1.1
	s-0.2,1.1,0.2,0.9c0.3-0.2,0.8,0.8,0.8,0.8s0.5,0.4,0.6,0.2c0.2-0.2,0.7,0.1,0.7,0.1l-0.4,1.2"/>
<path class="st2" d="M128,33c0.2,0.2,5.3,7.3,5.8,9.3"/>
<path class="st2" d="M132.5,43.5c0.1,0.1,1.9-1.5,2.5-2.5c0.6-1,2.9-3.7,3.2-4.1c0.2-0.4,2.3-2.8,2-5.1c-0.2-2.2-0.2-3.6-0.2-3.6
	l0.6-1l1.3-1.2c0,0,0.7-0.6,1.1,0.5c0,0,0.8-0.6,1,0.1c0,0,1.2,0.3,0.9,1.1c0,0,1,0.3,0.5,1.4c0,0-0.6,1.2-0.6,2.4
	c0,0,0.2,0.5-0.9,2.3c0,0-1.3,1.9-1.5,3.2c-0.2,1.2-2.3,6.8-4.2,10.3c-1.9,3.5-2.2,4.5-4.5,2.8c-2.3-1.7-8.3-7.3-9.5-11.2
	c-1.2-3.9-2.5-5.9,0.1-8.8c0,0,0.9-1.8,1.8-2.1c0.9-0.3,2.5-1.3,2.4-2.4"/>
<path class="st2" d="M141.8,26c-0.1-1.1-1.1-1-1.1-1l-0.2,2.2"/>
<path class="st2" d="M130.3,36c0,0,0.2-3.3-4.3-6.1l-2.1,0.2"/>
<path class="st2" d="M125.7,28c0,0,2.6-0.3,4.1,0.2c1.5,0.6,4.8,1,6.2-1.1c0,0,1.8-2.6,0.2-4.8c0,0,1.7-1.9,3.1-0.9"/>
<path class="st2" d="M135.5,23.8l-0.6-1.9l-0.2-2.3c0,0,0.8-0.2,0.8-0.9c0-0.7-0.1-2-0.1-2s0.1-1.4-0.5-1.4s-0.7,0.7-0.7,0.7
	l0.1,0.9l-0.2,0.4l-1.1-1.5c0,0-1.1-1.6-1.6-1.9c-0.5-0.3-1.6-1-2.5-0.6c-0.8,0.3-1.8,0.7-2.2,1c-0.4,0.2-1.1,0.1-1.7,0.9
	c-0.6,0.9-1,1.8-1.1,2.5c-0.1,0.7-0.2,2.4-0.2,2.4s-0.9,0-0.4,0.5c0.6,0.5,1,1.4,1,1.4l0.8,1.3l2,1.6l1.9,1.4l1.9,0.5
	c0,0,1.5,0,2.2-1.2l0.7-1.6l0.1-2"/>
<path class="st2" d="M135,15.2c0,0-1.1-1.4-1.3-1.9c-0.2-0.6-0.6-0.8-1.1-1.2c-0.5-0.4-0.6-0.9-1.6-1.5c-1-0.7-1.2-0.6-2.1-0.9
	c-0.9-0.2-1.2,0-2.3,0.1c-1,0.1-1.7,1.6-1.7,1.6s-0.9,0-1.5,1.2s-1.5,4.2-1.2,4.6s0.7,1.8,0.8,2.1c0.1,0.2,0.4,1.3,0.4,1.3"/>
<line class="st2" x1="136.3" y1="22.3" x2="135" y2="22.2"/>
<path class="st2" d="M130.9,10.5c0,0,1.1-0.5,1.8-0.1c0.7,0.4,1.7,2.8,1,2.8"/>
<line class="st2" x1="269" y1="159.7" x2="37.2" y2="128.8"/>
</svg>
